{
    "asset" : {
        "generator" : "Khronos glTF Blender I/O v1.5.17",
        "version" : "2.0"
    },
    "scene" : 0,
    "scenes" : [
        {
            "name" : "Scene",
            "nodes" : [
                0
            ]
        }
    ],
    "nodes" : [
        {
            "mesh" : 0,
            "name" : "Sphere",
            "rotation" : [
                0,
                0,
                0,
                -1
            ],
            "scale" : [
                1.733497142791748,
                1.733497142791748,
                1.733497142791748
            ],
            "translation" : [
                36.5197639465332,
                2.8630452156066895,
                -0.4592452645301819
            ]
        }
    ],
    "materials" : [
        {
            "doubleSided" : true,
            "name" : "Pearl.004",
            "normalTexture" : {
                "index" : 0,
                "scale" : 0.8999999761581421
            },
            "pbrMetallicRoughness" : {
                "baseColorTexture" : {
                    "index" : 1
                },
                "metallicFactor" : 0.7681818008422852,
                "roughnessFactor" : 0.11818183958530426
            }
        }
    ],
    "meshes" : [
        {
            "name" : "Sphere",
            "primitives" : [
                {
                    "attributes" : {
                        "POSITION" : 0,
                        "NORMAL" : 1,
                        "TEXCOORD_0" : 2
                    },
                    "indices" : 3,
                    "material" : 0
                }
            ]
        }
    ],
    "textures" : [
        {
            "sampler" : 0,
            "source" : 0
        },
        {
            "sampler" : 0,
            "source" : 1
        }
    ],
    "images" : [
        {
            "mimeType" : "image/png",
            "name" : "nukan",
            "uri" : "nuka/nukan.png"
        },
        {
            "mimeType" : "image/png",
            "name" : "nuka",
            "uri" : "nuka/nuka.png"
        }
    ],
    "accessors" : [
        {
            "bufferView" : 0,
            "componentType" : 5126,
            "count" : 3760,
            "max" : [
                1.3739036321640015,
                1.2028802633285522,
                0.7417558431625366
            ],
            "min" : [
                -0.8334200382232666,
                -1.6970164775848389,
                -0.6493692398071289
            ],
            "type" : "VEC3"
        },
        {
            "bufferView" : 1,
            "componentType" : 5126,
            "count" : 3760,
            "type" : "VEC3"
        },
        {
            "bufferView" : 2,
            "componentType" : 5126,
            "count" : 3760,
            "type" : "VEC2"
        },
        {
            "bufferView" : 3,
            "componentType" : 5123,
            "count" : 22488,
            "type" : "SCALAR"
        }
    ],
    "bufferViews" : [
        {
            "buffer" : 0,
            "byteLength" : 45120,
            "byteOffset" : 0
        },
        {
            "buffer" : 0,
            "byteLength" : 45120,
            "byteOffset" : 45120
        },
        {
            "buffer" : 0,
            "byteLength" : 30080,
            "byteOffset" : 90240
        },
        {
            "buffer" : 0,
            "byteLength" : 44976,
            "byteOffset" : 120320
        }
    ],
    "samplers" : [
        {
            "magFilter" : 9729,
            "minFilter" : 9987
        }
    ],
    "buffers" : [
        {
            "byteLength" : 165296,
            "uri" : "nuka.bin"
        }
    ]
}
